<?xml version="1.0" encoding="iso-8859-1"?>
<!-- Generator: Adobe Illustrator 19.0.0, SVG Export Plug-In . SVG Version: 6.00 Build 0)  -->
<svg version="1.1" id="Capa_1" xmlns="http://www.w3.org/2000/svg" xmlns:xlink="http://www.w3.org/1999/xlink" x="0px" y="0px"
	 viewBox="0 0 512 512" style="enable-background:new 0 0 512 512;" xml:space="preserve">
<g>
	<g>
		<path style="fill:#73D14F;" d="M464,128H48c-8.82,0-16,7.18-16,16v24c0,4.422,3.578,8,8,8h432c4.422,0,8-3.578,8-8v-24
			C480,135.18,472.82,128,464,128z"/>
	</g>
	<g>
		<path style="fill:#9E6459;" d="M472,160H40c-22.055,0-40,17.945-40,40v144c0,22.055,17.945,40,40,40h432c22.055,0,40-17.945,40-40
			V200C512,177.945,494.055,160,472,160z"/>
	</g>
	<g>
		<path style="fill:#7E5C62;" d="M456,192H288c-13.234,0-24,10.766-24,24v112c0,13.234,10.766,24,24,24h168
			c13.234,0,24-10.766,24-24V216C480,202.766,469.234,192,456,192z"/>
	</g>
	<g>
		<path style="fill:#C17B58;" d="M456,192H288c-8.408,0-15.792,4.364-20.08,10.928l28.603,67.924
			C302.633,286.133,317.211,296,333.664,296h76.672c16.453,0,31.031-9.867,37.086-25.016l28.658-68.057
			C471.792,196.364,464.409,192,456,192z"/>
	</g>
	<g>
		<circle style="fill:#FFD100;" cx="372" cy="264" r="16"/>
	</g>
	<g>
		<path style="fill:#7E5C62;" d="M32,256v80c0,8.82,7.18,16,16,16h184c8.82,0,16-7.18,16-16v-80H32z"/>
	</g>
	<g>
		<path style="fill:#FF4F19;" d="M248,240v-32c0-8.82-7.18-16-16-16H48c-8.82,0-16,7.18-16,16v32H248z"/>
	</g>
	<g>
		<path style="fill:#45BDF0;" d="M246,224H34c-1.105,0-2,0.895-2,2v30h216v-30C248,224.895,247.105,224,246,224z"/>
	</g>
</g>
<g>
</g>
<g>
</g>
<g>
</g>
<g>
</g>
<g>
</g>
<g>
</g>
<g>
</g>
<g>
</g>
<g>
</g>
<g>
</g>
<g>
</g>
<g>
</g>
<g>
</g>
<g>
</g>
<g>
</g>
</svg>
